<svg width="132" height="132" viewBox="0 0 132 132" fill="none" xmlns="http://www.w3.org/2000/svg">
<circle cx="66" cy="66" r="66" fill="#714A88"/>
<path d="M34.8594 60.6077L47.9844 47.4827C48.7135 46.7535 49.5729 46.2327 50.5625 45.9202C51.5521 45.6077 52.5677 45.5556 53.6094 45.7639L57.6719 46.6233C54.8594 49.9566 52.6458 52.9775 51.0312 55.6858C49.4167 58.3941 47.8542 61.6754 46.3438 65.5296L34.8594 60.6077ZM50.875 67.7171C52.0729 63.9671 53.7 60.4254 55.7562 57.0921C57.8146 53.7587 60.3021 50.6337 63.2187 47.7171C67.8021 43.1337 73.0365 39.7087 78.9219 37.4421C84.8073 35.1775 90.3021 34.4879 95.4063 35.3733C96.2917 40.4775 95.6146 45.9723 93.375 51.8577C91.1354 57.7431 87.724 62.9775 83.1406 67.5608C80.276 70.4254 77.151 72.9129 73.7656 75.0233C70.3802 77.1316 66.8125 78.7848 63.0625 79.9827L50.875 67.7171ZM72.4375 58.3421C73.6354 59.54 75.1073 60.1389 76.8531 60.1389C78.5969 60.1389 80.0677 59.54 81.2656 58.3421C82.4635 57.1442 83.0625 55.6723 83.0625 53.9264C83.0625 52.1827 82.4635 50.7119 81.2656 49.5139C80.0677 48.316 78.5969 47.7171 76.8531 47.7171C75.1073 47.7171 73.6354 48.316 72.4375 49.5139C71.2396 50.7119 70.6406 52.1827 70.6406 53.9264C70.6406 55.6723 71.2396 57.1442 72.4375 58.3421ZM70.25 95.9202L65.25 84.4358C69.1042 82.9254 72.399 81.3629 75.1344 79.7483C77.8677 78.1337 80.901 75.9202 84.2344 73.1077L85.0156 77.1702C85.224 78.2119 85.1719 79.241 84.8594 80.2577C84.5469 81.2723 84.026 82.1442 83.2969 82.8733L70.25 95.9202ZM39.8594 77.7171C41.6823 75.8941 43.8958 74.9691 46.5 74.9421C49.1042 74.9171 51.3177 75.816 53.1406 77.6389C54.9635 79.4619 55.875 81.6754 55.875 84.2796C55.875 86.8837 54.9635 89.0973 53.1406 90.9202C51.8385 92.2223 49.6646 93.3421 46.6188 94.2796C43.5708 95.2171 39.3646 96.0504 34 96.7796C34.7292 91.415 35.5625 87.2223 36.5 84.2014C37.4375 81.1806 38.5573 79.0191 39.8594 77.7171V77.7171Z" fill="white"/>
</svg>
