<svg width="132" height="132" viewBox="0 0 132 132" fill="none" xmlns="http://www.w3.org/2000/svg">
<circle cx="66" cy="66" r="66" fill="#714A88"/>
<path d="M85.4462 98.9747C72.6634 89.5823 51.4214 73.5717 25 70.0788L36.2939 59.0842C68.7122 71.545 85.4462 98.9747 85.4462 98.9747ZM26.3489 81.3838L35.1613 74.3633C60.8796 80.6587 82.6912 99 82.6912 99C73.5065 93.8383 47.451 81.14 26.3489 81.3838ZM34.4392 55.9175L63.8669 29.8558L70.2042 33.507L55.9357 49.6317C71.3018 62.2445 88.354 75.6617 86.827 97.5338C71.6963 76.1968 53.8551 60.9367 34.4392 55.9175ZM59.5943 49.1693L82.198 23C94.2587 32.8167 101 48.0578 101 56.2912C100.017 66.8108 89.6806 92.2328 88.7262 95.0385C88.0104 88.683 93.2883 77.4318 59.5943 49.1693Z" fill="white"/>
</svg>
