<svg width="132" height="132" viewBox="0 0 132 132" fill="none" xmlns="http://www.w3.org/2000/svg">
<circle cx="66" cy="66" r="66" fill="#9D2E7F"/>
<path fill-rule="evenodd" clip-rule="evenodd" d="M42.5 32.7083C42.5 32.189 42.7063 31.6908 43.0736 31.3236C43.4408 30.9563 43.939 30.75 44.4583 30.75H87.5417C88.0611 30.75 88.5592 30.9563 88.9264 31.3236C89.2937 31.6908 89.5 32.189 89.5 32.7083V34.6667H99.2917C99.8111 34.6667 100.309 34.873 100.676 35.2402C101.044 35.6075 101.25 36.1056 101.25 36.625V48.375C101.25 50.9719 100.218 53.4625 98.3821 55.2988C96.5458 57.135 94.0552 58.1667 91.4583 58.1667H88.1625C86.7627 62.1168 84.3335 65.6216 81.1258 68.3187C77.9182 71.0157 74.0485 72.8073 69.9167 73.5083V85.5833H81.6667C82.1861 85.5833 82.6842 85.7897 83.0514 86.1569C83.4187 86.5242 83.625 87.0223 83.625 87.5417V99.2917C83.625 99.8111 83.4187 100.309 83.0514 100.676C82.6842 101.044 82.1861 101.25 81.6667 101.25H50.3333C49.814 101.25 49.3158 101.044 48.9486 100.676C48.5813 100.309 48.375 99.8111 48.375 99.2917V87.5417C48.375 87.0223 48.5813 86.5242 48.9486 86.1569C49.3158 85.7897 49.814 85.5833 50.3333 85.5833H62.0833V73.5083C57.9515 72.8073 54.0818 71.0157 50.8742 68.3187C47.6665 65.6216 45.2373 62.1168 43.8375 58.1667H40.5417C37.9448 58.1667 35.4542 57.135 33.6179 55.2988C31.7816 53.4625 30.75 50.9719 30.75 48.375V36.625C30.75 36.1056 30.9563 35.6075 31.3236 35.2402C31.6908 34.873 32.189 34.6667 32.7083 34.6667H42.5V32.7083ZM89.5 50.3333V38.5833H97.3333V48.375C97.3333 49.9331 96.7144 51.4275 95.6126 52.5293C94.5108 53.631 93.0165 54.25 91.4583 54.25H89.5V50.3333ZM42.5 38.5833H34.6667V48.375C34.6667 49.9331 35.2856 51.4275 36.3874 52.5293C37.4892 53.631 38.9835 54.25 40.5417 54.25H42.5V38.5833Z" fill="white"/>
</svg>
