<svg width="132" height="132" viewBox="0 0 132 132" fill="none" xmlns="http://www.w3.org/2000/svg">
<circle cx="66" cy="66" r="66" fill="#9D2E7F"/>
<path fill-rule="evenodd" clip-rule="evenodd" d="M36.4909 28.625C35.6955 28.625 34.9864 29.1763 34.7129 30.0053L29.8565 44.7576C29.7031 45.2242 29.625 45.7121 29.625 46.2032V52.0717C29.625 55.39 32.0469 58.0833 35.0348 58.0833C38.0227 58.0833 40.4467 55.39 40.4467 52.0717C40.4467 55.3921 42.8686 58.0833 45.8565 58.0833C48.8445 58.0833 51.2685 55.39 51.2685 52.0717C51.2685 55.3921 53.6904 58.0833 56.6783 58.0833C59.6662 58.0833 62.086 55.3942 62.0902 52.0759C62.0902 55.3942 64.5121 58.0833 67.5 58.0833C70.4879 58.0833 72.9098 55.39 72.9098 52.0717C72.9098 55.3921 75.3338 58.0833 78.3217 58.0833C81.3096 58.0833 83.7294 55.3942 83.7315 52.0759C83.7336 55.3942 86.1555 58.0833 89.1435 58.0833C92.1314 58.0833 94.5533 55.39 94.5533 52.0717C94.5533 55.3921 96.9752 58.0833 99.9652 58.0833C102.953 58.0833 105.375 55.39 105.375 52.0717V46.2032C105.375 45.7121 105.297 45.2242 105.144 44.7576L100.287 30.0074C100.014 29.1763 99.3045 28.625 98.5091 28.625H36.4909Z" fill="white"/>
<path fill-rule="evenodd" clip-rule="evenodd" d="M38.0417 60.6715V77.0208H32.7812C32.5022 77.0208 32.2346 77.1317 32.0373 77.329C31.84 77.5263 31.7292 77.7939 31.7292 78.0729V80.1771C31.7292 80.4561 31.84 80.7237 32.0373 80.921C32.2346 81.1183 32.5022 81.2292 32.7812 81.2292H102.219C102.498 81.2292 102.765 81.1183 102.963 80.921C103.16 80.7237 103.271 80.4561 103.271 80.1771V78.0729C103.271 77.7939 103.16 77.5263 102.963 77.329C102.765 77.1317 102.498 77.0208 102.219 77.0208H96.9583V60.6715C96.0775 60.3204 95.2639 59.82 94.5533 59.1922C94.0078 59.6733 93.4015 60.0808 92.75 60.4042V77.0208H42.25V60.4042C41.5985 60.0808 40.9922 59.6733 40.4467 59.1922C39.7397 59.813 38.9317 60.318 38.0417 60.6715ZM92.75 56.5536C92.9289 56.3748 93.0972 56.1833 93.255 55.9792H92.75V56.5536ZM95.8515 55.9792C96.1697 56.3913 96.542 56.7587 96.9583 57.0712V55.9792H95.8515ZM38.0417 57.0712C38.4602 56.7611 38.8328 56.3935 39.1485 55.9792H38.0417V57.0712ZM41.745 55.9792H42.25V56.5536C42.0693 56.3734 41.9006 56.1815 41.745 55.9792ZM34.8854 85.4375C34.6064 85.4375 34.3388 85.5483 34.1415 85.7457C33.9442 85.943 33.8333 86.2106 33.8333 86.4896V102.271C33.8333 102.829 34.055 103.364 34.4496 103.759C34.8442 104.153 35.3794 104.375 35.9375 104.375H99.0625C99.6206 104.375 100.156 104.153 100.55 103.759C100.945 103.364 101.167 102.829 101.167 102.271V86.4896C101.167 86.2106 101.056 85.943 100.859 85.7457C100.661 85.5483 100.394 85.4375 100.115 85.4375H34.8854Z" fill="white"/>
<path d="M53.8229 70.7083H47.5104C46.9294 70.7083 46.4583 71.1794 46.4583 71.7604V75.9688C46.4583 76.5498 46.9294 77.0208 47.5104 77.0208H53.8229C54.404 77.0208 54.875 76.5498 54.875 75.9688V71.7604C54.875 71.1794 54.404 70.7083 53.8229 70.7083Z" fill="white"/>
<path d="M58.0313 72.8125H51.7188C51.1377 72.8125 50.6667 73.2835 50.6667 73.8646V75.9687C50.6667 76.5498 51.1377 77.0208 51.7188 77.0208H58.0313C58.6123 77.0208 59.0833 76.5498 59.0833 75.9687V73.8646C59.0833 73.2835 58.6123 72.8125 58.0313 72.8125Z" fill="white"/>
<path d="M64.3438 77.0208C66.0869 77.0208 67.5 75.6077 67.5 73.8646C67.5 72.1214 66.0869 70.7083 64.3438 70.7083C62.6006 70.7083 61.1875 72.1214 61.1875 73.8646C61.1875 75.6077 62.6006 77.0208 64.3438 77.0208Z" fill="white"/>
</svg>
