<svg width="132" height="132" viewBox="0 0 132 132" fill="none" xmlns="http://www.w3.org/2000/svg">
<circle cx="66" cy="66" r="66" fill="#714A88"/>
<path d="M97.75 85H47.125C46.2299 85 45.3715 85.3556 44.7385 85.9885C44.1056 86.6214 43.75 87.4799 43.75 88.375C43.75 89.2701 44.1056 90.1286 44.7385 90.7615C45.3715 91.3944 46.2299 91.75 47.125 91.75H97.75V98.5H47.125C44.4397 98.5 41.8643 97.4333 39.9655 95.5345C38.0667 93.6357 37 91.0603 37 88.375V37.75C37 35.9598 37.7112 34.2429 38.977 32.977C40.2429 31.7112 41.9598 31 43.75 31H97.75V85ZM80.875 54.625V47.875H53.875V54.625H80.875Z" fill="white"/>
</svg>
