<svg width="132" height="132" viewBox="0 0 132 132" fill="none" xmlns="http://www.w3.org/2000/svg">
<circle cx="66" cy="66" r="66" fill="#714A88"/>
<path d="M67.0625 46.25H76.25V41H71V38.375H65.75V41.1313C64.1551 41.4551 62.7375 42.36 61.7722 43.6703C60.807 44.9806 60.3631 46.6028 60.5266 48.222C60.6902 49.8412 61.4496 51.3419 62.6573 52.4327C63.8651 53.5235 65.4351 54.1266 67.0625 54.125H69.6875C70.0356 54.125 70.3695 54.2633 70.6156 54.5094C70.8617 54.7556 71 55.0894 71 55.4375C71 55.7856 70.8617 56.1194 70.6156 56.3656C70.3695 56.6117 70.0356 56.75 69.6875 56.75H60.5V62H65.75V64.625H71V61.8688C72.5949 61.5449 74.0126 60.64 74.9778 59.3297C75.943 58.0194 76.3869 56.3972 76.2234 54.778C76.0598 53.1588 75.3005 51.6581 74.0927 50.5673C72.8849 49.4765 71.315 48.8734 69.6875 48.875H67.0625C66.7144 48.875 66.3806 48.7367 66.1344 48.4906C65.8883 48.2444 65.75 47.9106 65.75 47.5625C65.75 47.2144 65.8883 46.8806 66.1344 46.6344C66.3806 46.3883 66.7144 46.25 67.0625 46.25Z" fill="white"/>
<path d="M99.875 53.625H94.5725C94.497 51.5511 93.9968 49.5147 93.1028 47.6418C92.2088 45.7689 90.9401 44.0994 89.375 42.7365V32.625C89.375 32.1375 89.2392 31.6596 88.983 31.245C88.7267 30.8303 88.36 30.4951 87.9239 30.2771C87.4879 30.0591 86.9998 29.9668 86.5143 30.0106C86.0287 30.0544 85.565 30.2325 85.175 30.525L75.3759 37.875H63.125C48.6612 37.875 38.2846 46.3826 37.0115 58.875H36.875C36.1788 58.875 35.5111 58.5984 35.0188 58.1062C34.5266 57.6139 34.25 56.9462 34.25 56.25V51H29V56.25C29.0021 58.3379 29.8324 60.3398 31.3088 61.8162C32.7852 63.2926 34.7871 64.1229 36.875 64.125H37.0588C37.4394 67.5671 38.5581 70.8865 40.3384 73.8569C42.1188 76.8273 44.5189 79.3787 47.375 81.3371V90.375C47.375 91.0712 47.6516 91.7389 48.1438 92.2312C48.6361 92.7234 49.3038 93 50 93H60.5C61.1962 93 61.8639 92.7234 62.3562 92.2312C62.8484 91.7389 63.125 91.0712 63.125 90.375V85.125H71V90.375C71 91.0712 71.2766 91.7389 71.7688 92.2312C72.2611 92.7234 72.9288 93 73.625 93H84.125C84.8212 93 85.4889 92.7234 85.9812 92.2312C86.4734 91.7389 86.75 91.0712 86.75 90.375V81.5471C88.6462 80.6482 90.3041 79.3155 91.5896 77.6569C92.8752 75.9984 93.7523 74.0604 94.1499 72H99.875C100.571 72 101.239 71.7234 101.731 71.2312C102.223 70.7389 102.5 70.0712 102.5 69.375V56.25C102.5 55.5538 102.223 54.8861 101.731 54.3938C101.239 53.9016 100.571 53.625 99.875 53.625ZM97.25 66.75H89.7005C88.8999 73.9766 87.5375 75.8981 81.5 78.0769V87.75H76.25V79.875H57.875V87.75H52.625V78.2423C49.4642 76.7385 46.7977 74.3648 44.938 71.3995C43.0783 68.4342 42.1025 65.0002 42.125 61.5C42.125 48.8081 52.6722 43.125 63.125 43.125H77.1241L84.125 37.875V45.162C90.4722 50.0445 89.1466 53.5252 89.4222 58.875H97.25V66.75Z" fill="white"/>
</svg>
