<svg width="131" height="132" viewBox="0 0 131 132" fill="none" xmlns="http://www.w3.org/2000/svg">
<ellipse cx="65.5" cy="66" rx="65.5" ry="66" fill="#9D2E7F"/>
<path d="M29.0833 96.375C28.0798 96.375 27.2393 96.035 26.5616 95.355C25.8816 94.6774 25.5416 93.8368 25.5416 92.8333C25.5416 91.8299 25.8816 90.9893 26.5616 90.3117C27.2393 89.6317 28.0798 89.2917 29.0833 89.2917H99.9166C100.92 89.2917 101.761 89.6317 102.438 90.3117C103.118 90.9893 103.458 91.8299 103.458 92.8333C103.458 93.8368 103.118 94.6774 102.438 95.355C101.761 96.035 100.92 96.375 99.9166 96.375H29.0833ZM36.1666 85.75C34.2187 85.75 32.5518 85.057 31.1658 83.671C29.7775 82.2827 29.0833 80.6146 29.0833 78.6667V39.7083C29.0833 37.7604 29.7775 36.0923 31.1658 34.704C32.5518 33.318 34.2187 32.625 36.1666 32.625H92.8333C94.7812 32.625 96.4493 33.318 97.8377 34.704C99.2236 36.0923 99.9166 37.7604 99.9166 39.7083V78.6667C99.9166 80.6146 99.2236 82.2827 97.8377 83.671C96.4493 85.057 94.7812 85.75 92.8333 85.75H36.1666ZM36.1666 78.6667H92.8333V39.7083H36.1666V78.6667ZM36.1666 78.6667V39.7083V78.6667Z" fill="white"/>
</svg>
