<svg width="132" height="132" viewBox="0 0 132 132" fill="none" xmlns="http://www.w3.org/2000/svg">
<circle cx="66" cy="66" r="66" fill="#714A88"/>
<path d="M31.2083 95.375V79.3333H37.625V88.9583H47.25V95.375H31.2083ZM85.75 95.375V88.9583H95.375V79.3333H101.792V95.375H85.75ZM40.8333 85.75V47.25H47.25V85.75H40.8333ZM50.4583 85.75V47.25H53.6666V85.75H50.4583ZM60.0833 85.75V47.25H66.5V85.75H60.0833ZM69.7083 85.75V47.25H79.3333V85.75H69.7083ZM82.5416 85.75V47.25H85.75V85.75H82.5416ZM88.9583 85.75V47.25H92.1666V85.75H88.9583ZM31.2083 53.6667V37.625H47.25V44.0417H37.625V53.6667H31.2083ZM95.375 53.6667V44.0417H85.75V37.625H101.792V53.6667H95.375Z" fill="white"/>
</svg>
