<svg width="132" height="132" viewBox="0 0 132 132" fill="none" xmlns="http://www.w3.org/2000/svg">
<circle cx="66" cy="66" r="66" fill="#714A88"/>
<path d="M45.5269 61.5199C45.859 61.5054 46.2318 61.5421 46.6451 61.6298C47.0585 61.7176 47.4736 61.8449 47.8904 62.0118C48.3072 62.1787 48.7234 62.3323 49.1391 62.4728C49.5547 62.6133 49.932 62.7555 50.2711 62.8993L49.6613 63.0051C49.4581 63.0403 49.2415 63.063 49.0115 63.073C48.5772 63.0918 48.1783 63.0431 47.8149 62.9267C47.4515 62.8104 47.1119 62.6534 46.7962 62.4557C46.4804 62.258 46.167 62.1131 45.8558 62.0209C45.5446 61.9287 45.2602 61.8618 45.0024 61.8201C44.7469 61.8312 44.5193 61.894 44.3194 62.0083C44.1196 62.1227 43.9204 62.2503 43.7217 62.3911C43.7172 62.2856 43.6254 62.2367 43.4466 62.2445C43.6174 62.0521 43.9433 61.8926 44.4241 61.766C44.9049 61.6394 45.2725 61.5573 45.5269 61.5199ZM50.7779 63.0755C51.8254 63.03 52.7915 63.173 53.6762 63.5045C53.3242 63.652 52.9711 63.773 52.6169 63.8677C52.2626 63.9623 51.8944 64.0312 51.5124 64.0742C51.0014 64.0964 50.5392 64.0636 50.1258 63.9759C50.2444 63.7593 50.3664 63.6219 50.4919 63.5636C50.6173 63.5053 50.7127 63.3426 50.7779 63.0755ZM64.244 25.706C67.8464 25.5495 71.3294 25.887 74.6932 26.7187C78.0569 27.5503 81.2328 28.7733 84.221 30.3876C87.2092 32.0019 89.9585 34.0097 92.469 36.4111C94.9794 38.8125 97.1419 41.4536 98.9564 44.3345C100.771 47.2153 102.239 50.3755 103.361 53.8149C104.483 57.2544 105.112 60.821 105.247 64.5147C105.408 68.2337 105.091 71.8282 104.295 75.2981C103.498 78.7681 102.322 82.0431 100.767 85.1232C99.2111 88.2033 97.2735 91.0357 94.9541 93.6205C92.6347 96.2053 90.082 98.4302 87.2962 100.295C84.5103 102.16 81.453 103.667 78.1241 104.816C74.7952 105.965 71.3417 106.604 67.7637 106.733C64.1614 106.889 60.6783 106.552 57.3146 105.72C53.9508 104.889 50.7749 103.666 47.7867 102.051C44.7985 100.437 42.0492 98.4291 39.5388 96.0277C37.0283 93.6263 34.8658 90.9852 33.0513 88.1043C31.2367 85.2235 29.7684 82.0633 28.6463 78.6239C27.5242 75.1844 26.8958 71.6178 26.7609 67.9241C26.5994 64.2051 26.9168 60.6106 27.7131 57.1407C28.5095 53.6707 29.6855 50.3957 31.2411 47.3156C32.7967 44.2355 34.7342 41.4031 37.0536 38.8183C39.3731 36.2335 41.9257 34.0086 44.7115 32.1435C47.4974 30.2784 50.5548 28.7714 53.8837 27.6226C57.2126 26.4738 60.666 25.8349 64.244 25.706ZM94.4001 46.3954C94.0172 45.8307 93.6355 45.2923 93.2549 44.7803C92.8743 44.2683 92.4803 43.7437 92.073 43.2065C92.0322 43.4461 91.9758 43.6203 91.9038 43.7291C91.8317 43.838 91.7909 44.0776 91.7814 44.4479C91.7917 44.6853 91.8909 44.9056 92.0789 45.1089C92.2669 45.3121 92.506 45.5131 92.7962 45.7119C93.0864 45.9107 93.3743 46.0568 93.6599 46.1501C93.9455 46.2434 94.1923 46.3251 94.4001 46.3954ZM91.5874 42.633C91.5965 42.844 91.5645 42.9907 91.4913 43.0732L91.7212 43.0632C91.8234 43.0588 91.9007 43.0686 91.9529 43.0928L91.5874 42.633ZM67.5438 101.669C70.4563 101.542 73.2884 101.036 76.04 100.15C78.7916 99.2642 81.3761 98.0685 83.7936 96.5629C86.2111 95.0573 88.4361 93.243 90.4684 91.1199C92.5007 88.9969 94.2545 86.6481 95.7297 84.0736C95.3631 83.2967 95.0088 82.5061 94.6667 81.7018C94.3246 80.8975 94.1347 80.0601 94.0969 79.1897C94.0556 78.2401 94.0607 77.4736 94.1121 76.89C94.1636 76.3064 94.2307 75.7882 94.3134 75.3353C94.3961 74.8825 94.4306 74.4978 94.4168 74.1813C94.4031 73.8648 94.347 73.4576 94.2486 72.9598C94.1502 72.462 93.9095 71.9307 93.5266 71.366C93.1437 70.8013 92.6356 70.0041 92.0021 68.9746C92.0196 68.7889 92.0471 68.5367 92.0844 68.2179C92.1218 67.8992 92.1586 67.5673 92.1948 67.2222C92.231 66.8771 92.23 66.56 92.1918 66.271C92.1537 65.9819 92.0789 65.7341 91.9676 65.5276C91.2999 65.4773 90.6037 65.3622 89.8792 65.1823C89.1547 65.0023 88.5022 64.7136 87.9218 64.316L88.1431 64.1082C87.8144 64.2017 87.4869 64.3217 87.1605 64.468C86.8341 64.6143 86.521 64.7732 86.2213 64.9448C85.9216 65.1164 85.5941 65.2363 85.2387 65.3046C84.8833 65.3729 84.5407 65.4406 84.2108 65.5078L83.5942 65.4553L83.6971 65.1733C83.344 65.2944 82.9665 65.4429 82.5646 65.6189C82.1627 65.7949 81.7702 65.8913 81.3869 65.9079C81.1314 65.919 80.757 65.8428 80.2635 65.6793C79.7701 65.5157 79.2749 65.3126 78.778 65.0699C78.2811 64.8273 77.8342 64.556 77.4372 64.2561C77.0402 63.9563 76.8355 63.6613 76.8229 63.3711L76.8943 63.2491C76.7597 63.0964 76.5874 62.9585 76.3772 62.8355C76.1671 62.7125 75.9698 62.589 75.7852 62.4649C75.6006 62.3408 75.4283 62.2029 75.2681 62.0513C75.1079 61.8997 75.036 61.7179 75.0524 61.5057L75.4585 61.1313L74.5719 61.0509L74.2138 59.8773C74.2706 60.007 74.3879 60.0548 74.5656 60.0206C74.7432 59.9865 74.8815 59.9276 74.9802 59.844L73.5679 59.1523L74.416 56.5786C73.9988 55.2225 61.4237 93.954 61.5705 93.2077C61.7172 92.4614 74.4756 52.0572 74.9659 51.5602C75.4563 51.0632 75.9978 50.5641 76.5903 50.0627C77.1828 49.5613 77.7807 48.8879 78.3839 48.0425L78.2483 47.5727L80.6402 44.2977L81.2116 44.1936C81.9269 44.1625 82.7306 44.1012 83.6225 44.0096C84.5144 43.918 85.4174 43.7863 86.3314 43.6144C87.2455 43.4426 88.1467 43.2713 89.0352 43.1006C89.9237 42.9299 90.7338 42.7229 91.4655 42.4797C90.6044 41.513 89.7073 40.6006 88.7741 39.7427C87.841 38.8847 86.8456 38.0691 85.7882 37.2959C85.5117 37.4136 85.1731 37.5736 84.7724 37.776C84.3716 37.9784 83.9731 38.2336 83.5769 38.5414C83.1808 38.8493 82.8752 39.1797 82.6601 39.5326C82.4451 39.8855 82.32 40.2477 82.285 40.6191L82.5476 41.3609C82.1209 42.1457 81.6306 42.6427 81.0765 42.8518C80.5224 43.0608 79.9522 43.1913 79.3657 43.2432C78.7792 43.2951 78.1661 43.3217 77.5262 43.3231C76.8863 43.3245 76.2783 43.4698 75.7021 43.7591L75.0305 42.4405L75.5057 40.1209L74.8112 39.1601L81.3484 36.7356C81.0352 36.0093 80.5513 35.4754 79.8965 35.1338C79.2418 34.7923 78.5312 34.6382 77.7647 34.6715L77.7475 34.2759L79.8781 33.8266C77.4494 32.7165 74.9438 31.9004 72.3615 31.3784C69.7791 30.8564 67.1466 30.6536 64.464 30.7701C62.2412 30.8667 60.0538 31.1863 57.9016 31.7291C55.7494 32.2718 53.6825 33.009 51.7008 33.9407C49.7191 34.8724 47.8105 36.0123 45.9748 37.3605C44.1392 38.7087 42.4766 40.2079 40.9868 41.8582C41.6511 41.8293 42.1695 41.9786 42.5421 42.3059C42.9147 42.6333 43.2634 43.0013 43.5883 43.41C43.9133 43.8187 44.2492 44.1873 44.5963 44.5157C44.9433 44.8442 45.3984 45.0094 45.9616 45.0113L46.5542 44.5099L46.4397 43.6429L47.6236 41.7284L46.5 38.844C46.6243 38.7593 46.8102 38.6191 47.0577 38.4234C47.3052 38.2276 47.5183 38.1259 47.6972 38.1181C48.4636 38.0848 49.053 38.0989 49.4652 38.1602C49.8774 38.2216 50.2414 38.3511 50.5571 38.5488C50.8729 38.7465 51.1543 39.0382 51.4014 39.4238C51.6486 39.8095 52.028 40.2951 52.5398 40.8806L53.8713 39.7129C54.1314 39.8073 54.5476 39.961 55.12 40.174C55.6924 40.387 56.2798 40.6521 56.8824 40.9695C57.4849 41.2868 57.9985 41.6213 58.4234 41.9728C58.8482 42.3243 59.0802 42.6577 59.1195 42.9731C59.1367 43.3688 59.01 43.6914 58.7392 43.941C58.4685 44.1906 58.1066 44.4045 57.6536 44.5827C57.2006 44.761 56.7331 44.9002 56.2512 45.0004C55.7692 45.1006 55.2883 45.2272 54.8086 45.3802C54.3289 45.5331 53.9642 45.6811 53.7144 45.8241C53.4647 45.9671 53.3211 46.1979 53.2838 46.5166L55.5392 47.1718C55.0477 47.6424 54.5161 48.0751 53.9445 48.4699C53.373 48.8647 52.7747 49.2342 52.1497 49.5784L52.3322 50.2444L48.8684 51.8218L48.9165 52.9296L48.6534 53.06L48.7848 51.6669L48.6298 51.634C48.451 51.6418 48.3505 51.6858 48.3284 51.766C48.3063 51.8462 48.2975 51.9391 48.3021 52.0446C48.3067 52.1501 48.3368 52.2545 48.3925 52.3578C48.4482 52.4611 48.4644 52.5397 48.4411 52.5935L47.9309 52.3382L48.0144 52.4931C48.0179 52.5723 48.0613 52.6893 48.1449 52.8442C48.2284 52.9991 48.3369 53.1398 48.4704 53.2661C48.6038 53.3924 48.7118 53.5199 48.7941 53.6484C48.8765 53.777 48.9305 53.8407 48.956 53.8396C48.9595 53.9187 48.9118 54.0001 48.813 54.0836C48.7143 54.1672 48.5888 54.2255 48.4367 54.2585C48.2845 54.2916 48.1841 54.3356 48.1352 54.3905C48.0864 54.4455 48.087 54.4587 48.137 54.4301C48.4947 54.4146 48.5724 54.4376 48.3703 54.4992C48.1682 54.5609 47.8546 54.7066 47.4294 54.9365C47.0043 55.1664 46.6215 55.4869 46.281 55.8981C45.9405 56.3093 45.7613 56.8984 45.7434 57.6655C45.7629 58.1139 45.7946 58.5486 45.8384 58.9695C45.8823 59.3904 45.8885 59.8261 45.8568 60.2767C45.4556 59.29 44.8859 58.5484 44.1476 58.052C43.4093 57.5555 42.5292 57.3295 41.5072 57.3739L39.8662 57.6037L40.6951 58.1227C40.2584 58.0888 39.809 58.0554 39.3469 58.0227C38.8847 57.9899 38.4115 57.9972 37.9272 58.0447C37.4429 58.0922 37.0132 58.2165 36.638 58.4178C36.2627 58.6191 35.8915 58.9127 35.5244 59.2986L35.3718 61.089C35.4084 61.933 35.617 62.611 35.9976 63.123C36.3782 63.635 37.0162 63.8847 37.9116 63.8722C38.678 63.8389 39.4266 63.6875 40.1572 63.4179C40.8878 63.1484 41.6039 62.8398 42.3055 62.4922C42.1008 63.0825 41.8693 63.6475 41.6112 64.1872C41.3531 64.7269 41.1739 65.3161 41.0737 65.9546L41.5822 66.1704C42.177 65.7217 42.7362 65.6314 43.2598 65.8993C43.7834 66.1673 44.2999 66.5676 44.8094 67.1004C45.3189 67.6332 45.8417 68.1787 46.3779 68.7368C46.9141 69.2948 47.4817 69.693 48.0808 69.9312L46.8088 70.7L43.6656 69.0528C43.6934 69.1044 43.7241 69.222 43.7577 69.4055C43.7912 69.589 43.7802 69.6292 43.7245 69.5259L42.24 67.1724C41.4213 67.1815 40.5469 67.0874 39.6169 66.89C38.6868 66.6925 37.7405 66.4165 36.778 66.062C35.8155 65.7074 34.9152 65.3105 34.077 64.8712C33.2388 64.432 32.4634 63.9636 31.7506 63.466L31.6663 67.711C31.8061 70.9289 32.364 74.0493 33.34 77.0723C34.316 80.0953 35.6289 82.9186 37.2787 85.5424C38.9285 88.1662 40.9129 90.5375 43.2319 92.6566C45.5509 94.7756 48.0982 96.5544 50.874 97.9929C50.7222 97.4446 50.6854 96.8912 50.7635 96.3329C50.8416 95.7746 50.9453 95.2151 51.0746 94.6546C51.2038 94.094 51.3458 93.5329 51.5006 92.9712C51.6554 92.4096 51.7201 91.8386 51.6949 91.2583C51.6583 90.4143 51.4921 89.5363 51.1966 88.6242C50.901 87.7121 50.5537 86.7891 50.1548 85.8551C49.7558 84.9211 49.3192 84.002 48.8447 83.0977C48.3703 82.1934 47.9876 81.338 47.6966 80.5314C47.4056 79.7249 47.168 78.9688 46.9837 78.2633C46.7995 77.5579 46.8492 76.9347 47.1329 76.3938L46.546 76.1419C46.6833 75.766 46.8722 75.401 47.1128 75.047C47.3534 74.693 47.6067 74.3385 47.8729 73.9834C48.139 73.6283 48.3401 73.2496 48.4763 72.8473C48.6124 72.445 48.6846 72.0455 48.693 71.6487C48.6815 71.385 48.6184 71.1102 48.5036 70.8245C48.3888 70.5388 48.2873 70.2658 48.1992 70.0054L49.0126 70.1682C49.4022 69.1207 49.9595 68.3962 50.6844 67.9948C51.4093 67.5933 52.3332 67.355 53.4562 67.2798C53.5839 67.2742 53.8545 67.3153 54.2679 67.4031C54.6812 67.4908 55.1218 67.617 55.5897 67.7817C56.0576 67.9463 56.4983 68.0725 56.9116 68.1603C57.325 68.248 57.6362 68.3402 57.8451 68.4368C57.8532 68.6215 57.9605 68.7357 58.1672 68.7796C58.3739 68.8235 58.4929 68.9108 58.5241 69.0415L58.4612 69.3614C58.539 69.3844 58.7219 69.469 59.0098 69.615C59.2977 69.7611 59.6129 69.9456 59.9553 70.1685C60.2978 70.3915 60.6008 70.5897 60.8643 70.7633C61.1278 70.9368 61.3129 71.0741 61.4197 71.1752C61.8796 71.1552 62.5124 71.2863 63.3182 71.5684C64.1239 71.8505 65.0098 72.2084 65.9757 72.6421C66.9416 73.0758 67.8988 73.6024 68.8472 74.2218C69.7956 74.8412 70.6929 75.4629 71.5391 76.0868C72.3853 76.7107 73.0399 77.3429 73.5029 77.9834C73.9658 78.6239 74.2465 79.1931 74.3449 79.6909L73.1038 81.1718C73.2645 82.5126 73.2197 83.5451 72.9696 84.2695C72.7195 84.9938 72.311 85.6062 71.744 86.1065C71.177 86.6067 70.5171 87.0318 69.7644 87.3816C69.0117 87.7314 68.2008 88.2159 67.3318 88.835C67.3547 89.3625 67.2516 89.9351 67.0225 90.5529C66.7934 91.1706 66.4992 91.7648 66.14 92.3353C65.7809 92.9059 65.341 93.3874 64.8205 93.78C64.3001 94.1725 63.7716 94.3805 63.235 94.4038L61.5705 93.2077C61.6239 93.2582 61.6279 93.3505 61.5825 93.4846C61.5371 93.6187 61.4744 93.6479 61.3943 93.5721C61.6716 94.0621 61.7607 94.6396 61.6616 95.3046C61.5625 95.9695 61.3745 96.6515 61.0977 97.3506C60.8209 98.0497 60.5041 98.7109 60.1472 99.3342C59.7903 99.9575 59.4677 100.487 59.1795 100.922C60.5752 101.231 61.9668 101.448 63.3545 101.573C64.7421 101.698 66.1386 101.73 67.5438 101.669Z" fill="white"/>
</svg>
