<svg width="131" height="132" viewBox="0 0 131 132" fill="none" xmlns="http://www.w3.org/2000/svg">
<ellipse cx="65.5" cy="66" rx="65.5" ry="66" fill="#9D2E7F"/>
<path d="M73.75 56.8375V49.825C76.0188 48.8625 78.3397 48.1406 80.713 47.6594C83.0835 47.1781 85.575 46.9375 88.1875 46.9375C89.975 46.9375 91.7281 47.075 93.4469 47.35C95.1656 47.625 96.85 47.9687 98.5 48.3812V54.9812C96.85 54.3625 95.1835 53.8991 93.5005 53.5911C91.8148 53.2804 90.0437 53.125 88.1875 53.125C85.575 53.125 83.0656 53.4522 80.6594 54.1067C78.2531 54.7585 75.95 55.6687 73.75 56.8375ZM73.75 79.525V72.5125C76.0188 71.55 78.3397 70.8281 80.713 70.3469C83.0835 69.8656 85.575 69.625 88.1875 69.625C89.975 69.625 91.7281 69.7625 93.4469 70.0375C95.1656 70.3125 96.85 70.6563 98.5 71.0688V77.6687C96.85 77.05 95.1835 76.5866 93.5005 76.2786C91.8148 75.9679 90.0437 75.8125 88.1875 75.8125C85.575 75.8125 83.0656 76.1219 80.6594 76.7406C78.2531 77.3594 75.95 78.2875 73.75 79.525ZM73.75 68.1812V61.1687C76.0188 60.2062 78.3397 59.4844 80.713 59.0031C83.0835 58.5219 85.575 58.2812 88.1875 58.2812C89.975 58.2812 91.7281 58.4188 93.4469 58.6938C95.1656 58.9688 96.85 59.3125 98.5 59.725V66.325C96.85 65.7062 95.1835 65.2429 93.5005 64.9349C91.8148 64.6241 90.0437 64.4688 88.1875 64.4688C85.575 64.4688 83.0656 64.796 80.6594 65.4505C78.2531 66.1022 75.95 67.0125 73.75 68.1812ZM69.625 86.3312C72.65 84.8875 75.6929 83.804 78.7536 83.0807C81.8116 82.3602 84.9562 82 88.1875 82C90.6625 82 93.0866 82.2062 95.4599 82.6187C97.8304 83.0312 100.219 83.65 102.625 84.475V43.6375C100.356 42.675 98.0023 41.9531 95.563 41.4719C93.121 40.9906 90.6625 40.75 88.1875 40.75C84.9562 40.75 81.7594 41.1625 78.5969 41.9875C75.4344 42.8125 72.4438 44.05 69.625 45.7V86.3312ZM65.5 98.5C62.2 95.8875 58.625 93.8594 54.775 92.4156C50.925 90.9719 46.9375 90.25 42.8125 90.25C39.925 90.25 37.0898 90.6281 34.3068 91.3844C31.521 92.1406 28.8563 93.2062 26.3125 94.5812C24.8688 95.3375 23.4773 95.3031 22.138 94.4781C20.796 93.6531 20.125 92.45 20.125 90.8687V41.1625C20.125 40.4062 20.3148 39.6844 20.6943 38.9969C21.071 38.3094 21.6375 37.7937 22.3937 37.45C25.625 35.8687 28.9429 34.6477 32.3474 33.787C35.7491 32.929 39.2375 32.5 42.8125 32.5C46.8 32.5 50.7023 33.0156 54.5193 34.0469C58.3335 35.0781 61.9937 36.625 65.5 38.6875C69.0063 36.625 72.6679 35.0781 76.4849 34.0469C80.2991 33.0156 84.2 32.5 88.1875 32.5C91.7625 32.5 95.2523 32.929 98.6568 33.787C102.059 34.6477 105.375 35.8687 108.606 37.45C109.363 37.7937 109.93 38.3094 110.31 38.9969C110.687 39.6844 110.875 40.4062 110.875 41.1625V90.8687C110.875 92.45 110.205 93.6531 108.866 94.4781C107.524 95.3031 106.131 95.3375 104.688 94.5812C102.144 93.2062 99.479 92.1406 96.6933 91.3844C93.9103 90.6281 91.075 90.25 88.1875 90.25C84.0625 90.25 80.075 90.9719 76.225 92.4156C72.375 93.8594 68.8 95.8875 65.5 98.5Z" fill="white"/>
</svg>
