<svg width="161" height="161" viewBox="0 0 161 161" fill="none" xmlns="http://www.w3.org/2000/svg">
<path d="M80.5 13.4167C43.6042 13.4167 13.4167 43.6042 13.4167 80.5001C13.4167 117.396 43.6042 147.583 80.5 147.583C117.396 147.583 147.583 117.396 147.583 80.5001C147.583 43.6042 117.396 13.4167 80.5 13.4167ZM59.2346 47.2938C65.8088 47.2938 71.1083 52.5934 71.1083 59.2347C71.1083 65.8088 65.8088 71.1084 59.2346 71.1084C52.5933 71.1084 47.2938 65.8088 47.2938 59.2347C47.2938 52.5934 52.5933 47.2938 59.2346 47.2938ZM102.101 114.042C95.5267 114.042 90.2271 108.675 90.2271 102.101C90.2271 95.5267 95.5267 90.2272 102.101 90.2272C108.675 90.2272 114.042 95.5267 114.042 102.101C114.042 108.675 108.675 114.042 102.101 114.042ZM57.0208 114.243L46.9583 104.18L104.18 46.9584L114.243 57.0209L57.0208 114.243Z" fill="#9D2E7F"/>
</svg>
