<svg width="121" height="121" viewBox="0 0 121 121" fill="none" xmlns="http://www.w3.org/2000/svg">
<path d="M19.8516 113.438H6.61719C5.86505 113.438 5.14372 113.139 4.61188 112.607C4.08004 112.075 3.78125 111.354 3.78125 110.602V21.7422C3.78125 20.9901 4.08004 20.2687 4.61188 19.7369C5.14372 19.205 5.86505 18.9062 6.61719 18.9062H19.8516C20.6037 18.9062 21.325 19.205 21.8569 19.7369C22.3887 20.2687 22.6875 20.9901 22.6875 21.7422V110.602C22.6875 111.354 22.3887 112.075 21.8569 112.607C21.325 113.139 20.6037 113.438 19.8516 113.438ZM56.7188 49.1562V36.8672C56.7188 36.115 56.42 35.3937 55.8881 34.8619C55.3563 34.33 54.6349 34.0312 53.8828 34.0312H29.3047C28.5525 34.0312 27.8312 34.33 27.2994 34.8619C26.7675 35.3937 26.4688 36.115 26.4688 36.8672V49.1562H56.7188ZM26.4688 98.3125V110.602C26.4688 111.354 26.7675 112.075 27.2994 112.607C27.8312 113.139 28.5525 113.438 29.3047 113.438H53.8828C54.6349 113.438 55.3563 113.139 55.8881 112.607C56.42 112.075 56.7188 111.354 56.7188 110.602V98.3125H26.4688ZM26.4688 56.7188H56.7188V90.75H26.4688V56.7188ZM80.3516 113.438H63.3359C62.5838 113.438 61.8625 113.139 61.3306 112.607C60.7988 112.075 60.5 111.354 60.5 110.602V10.3984C60.5 9.6463 60.7988 8.92497 61.3306 8.39313C61.8625 7.86129 62.5838 7.5625 63.3359 7.5625H80.3516C81.1037 7.5625 81.825 7.86129 82.3569 8.39313C82.8887 8.92497 83.1875 9.6463 83.1875 10.3984V110.602C83.1875 111.354 82.8887 112.075 82.3569 112.607C81.825 113.139 81.1037 113.438 80.3516 113.438ZM87.2051 23.7982L94.2949 110.727C94.3264 111.108 94.4346 111.479 94.6132 111.817C94.7917 112.155 95.0368 112.454 95.3337 112.695C95.6307 112.936 95.9733 113.115 96.3411 113.22C96.7088 113.325 97.094 113.355 97.4735 113.308L114.527 111.181C115.253 111.09 115.916 110.722 116.377 110.154C116.838 109.586 117.062 108.861 117.001 108.132L109.893 21.5555C109.861 21.1795 109.755 20.8135 109.581 20.4789C109.406 20.1444 109.167 19.8481 108.876 19.6073C108.586 19.3665 108.25 19.1861 107.889 19.0767C107.528 18.9673 107.148 18.931 106.773 18.9701L89.7267 20.7449C88.9912 20.8244 88.3158 21.1881 87.8447 21.7586C87.3736 22.329 87.1441 23.0609 87.2051 23.7982Z" fill="#9D2E7F"/>
</svg>
