<svg width="149" height="149" viewBox="0 0 149 149" fill="none" xmlns="http://www.w3.org/2000/svg">
<path fill-rule="evenodd" clip-rule="evenodd" d="M74.6242 18.625C60.6026 18.625 47.8259 23.2564 40.2672 27.0404C39.5843 27.3819 38.948 27.7171 38.3551 28.0399C37.1817 28.6794 36.1822 29.2754 35.3875 29.8L43.986 42.4588L48.0339 44.0699C63.8527 52.0507 85.0666 52.0507 100.889 44.0699L105.483 41.6859L113.616 29.8C111.931 28.7011 110.179 27.7089 108.37 26.8293C100.851 23.0857 88.3818 18.625 74.6242 18.625ZM54.624 32.9538C51.5792 32.3841 48.5719 31.6294 45.6188 30.694C52.6994 27.5495 63.2536 24.2125 74.6211 24.2125C82.4963 24.2125 89.9432 25.8143 96.1019 27.8444C88.8847 28.8594 81.1833 30.5822 73.845 32.7024C68.0713 34.3724 61.3228 34.1924 54.624 32.9538ZM104.167 48.6733L103.406 49.0583C86.0009 57.8368 62.9183 57.8368 45.5133 49.0583L44.7931 48.692C18.6498 77.3776 -1.30996 130.366 74.6242 130.366C150.552 130.366 130.105 76.3873 104.167 48.6733ZM71.3958 74.5C69.7493 74.5 68.1702 75.1541 67.0059 76.3184C65.8416 77.4827 65.1875 79.0618 65.1875 80.7083C65.1875 82.3549 65.8416 83.934 67.0059 85.0983C68.1702 86.2626 69.7493 86.9167 71.3958 86.9167V74.5ZM77.6042 68.2917V65.1875H71.3958V68.2917C68.1027 68.2917 64.9445 69.5998 62.6159 71.9284C60.2873 74.257 58.9792 77.4152 58.9792 80.7083C58.9792 84.0014 60.2873 87.1597 62.6159 89.4882C64.9445 91.8168 68.1027 93.125 71.3958 93.125V105.542C70.1119 105.542 68.8595 105.144 67.811 104.403C66.7625 103.662 65.9696 102.614 65.5414 101.404C65.2672 100.627 64.6959 99.9918 63.9531 99.6367C63.2103 99.2816 62.3568 99.2361 61.5804 99.5103C60.8041 99.7844 60.1685 100.356 59.8133 101.099C59.4582 101.841 59.4128 102.695 59.6869 103.471C60.5432 105.892 62.1289 107.989 64.2258 109.471C66.3227 110.954 68.8277 111.75 71.3958 111.75V114.854H77.6042V111.75C80.8973 111.75 84.0555 110.442 86.3841 108.113C88.7126 105.785 90.0208 102.626 90.0208 99.3333C90.0208 96.0402 88.7126 92.882 86.3841 90.5534C84.0555 88.2249 80.8973 86.9167 77.6042 86.9167V74.5C80.3048 74.5 82.605 76.2228 83.4617 78.6379C83.5888 79.033 83.7939 79.3986 84.0648 79.7131C84.3356 80.0275 84.6668 80.2845 85.0388 80.4688C85.4107 80.653 85.8158 80.7608 86.2301 80.7857C86.6444 80.8107 87.0595 80.7523 87.4508 80.6141C87.8422 80.4758 88.2018 80.2604 88.5085 79.9807C88.8152 79.7011 89.0626 79.3627 89.2363 78.9857C89.4099 78.6087 89.5061 78.2007 89.5193 77.7859C89.5325 77.371 89.4624 76.9577 89.3131 76.5705C88.4568 74.1493 86.8711 72.0531 84.7742 70.5705C82.6772 69.0879 80.1723 68.2917 77.6042 68.2917ZM77.6042 93.125V105.542C79.2507 105.542 80.8298 104.888 81.9941 103.723C83.1584 102.559 83.8125 100.98 83.8125 99.3333C83.8125 97.6868 83.1584 96.1077 81.9941 94.9434C80.8298 93.7791 79.2507 93.125 77.6042 93.125Z" fill="#9D2E7F"/>
</svg>
