<svg width="133" height="133" viewBox="0 0 133 133" fill="none" xmlns="http://www.w3.org/2000/svg">
<path d="M110.833 44.3335L77.5833 11.0835H33.25C30.3105 11.0835 27.4914 12.2512 25.4129 14.3297C23.3344 16.4083 22.1667 19.2273 22.1667 22.1668V110.834C22.1667 113.773 23.3344 116.592 25.4129 118.671C27.4914 120.749 30.3105 121.917 33.25 121.917H99.75C102.689 121.917 105.509 120.749 107.587 118.671C109.666 116.592 110.833 113.773 110.833 110.834V44.3335ZM49.875 105.292H38.7917V55.4168H49.875V105.292ZM72.0417 105.292H60.9583V72.0418H72.0417V105.292ZM94.2083 105.292H83.125V88.6668H94.2083V105.292ZM77.5833 49.8752H72.0417V22.1668L99.75 49.8752H77.5833Z" fill="#9D2E7F"/>
</svg>
