<svg width="156" height="156" viewBox="0 0 156 156" fill="none" xmlns="http://www.w3.org/2000/svg">
<path d="M64.1672 13.5251L62.0344 12.1876C57.8602 9.62819 52.65 8.14131 48.1711 9.53678C43.357 11.0358 39.518 14.7439 37.507 20.3136L34.643 18.8389C29.707 16.2978 27.1233 16.2582 24.9813 17.221C23.272 17.9858 21.4896 19.8261 19.4695 22.5134L44.5758 41.9251C48.5063 43.2047 54.2648 43.1743 60.0234 41.6813C65.8125 40.1883 71.5711 37.2633 75.7758 33.3329L85.2516 9.9024C76.9031 3.30592 69.2859 7.1267 64.1672 13.5251ZM80.3461 36.8368C75.1664 42.0774 67.4578 45.6118 61.4555 47.1961C59.3531 47.7446 57.2508 48.1407 55.2094 48.354C54.082 50.2126 53.1375 52.1016 52.4062 53.9907C53.8688 61.4251 56.6109 67.5188 60.7242 72.5157L56.3367 76.1719C53.8078 73.1251 51.5531 69.8344 49.8469 66.1782C49.5727 73.2469 51.157 80.5594 53.7469 88.1766L48.3539 90.0047C43.6008 76.111 41.9859 61.8821 48.6586 48.4758C46.4039 48.293 44.2711 47.8665 42.2906 47.1657L42.1992 47.1352C40.8891 48.3844 39.6398 49.6946 38.4516 51.0657C28.8326 62.2172 23.5341 77.0555 26.3067 88.6032C27.7905 94.7883 30.4505 100.638 34.2773 105.635C39.8836 105.513 45.1852 105.635 49.9992 107.463C52.2844 107.22 54.6305 107.067 57.068 107.067C65.7516 107.067 73.6125 108.682 79.5539 111.485C81.8695 112.582 83.9719 113.892 85.6477 115.385C85.6477 113.77 85.8914 112.034 86.3789 110.754C83.6672 108.195 81.9609 105.087 81.9609 101.552C81.9609 96.6469 85.2211 92.5946 89.9438 89.6696C89.9438 88.268 90.218 86.9274 90.7055 85.6477C87.6281 82.9969 85.6477 79.7063 85.6477 75.8672C85.6477 73.4602 86.4398 71.2665 87.7805 69.286C86.4398 67.336 85.6477 65.1422 85.6477 62.7352C85.6477 61.5469 85.8305 60.4501 86.1656 59.3836C83.2102 56.7633 81.3516 53.5336 81.3516 49.8165C81.3516 46.1297 83.1797 42.9305 86.1047 40.3407C84.307 38.9391 82.3875 37.7508 80.3461 36.8368ZM114.288 37.5376C106.366 37.5376 99.2063 39.2133 94.3008 41.6813C89.3648 44.1493 87.0492 47.1962 87.0492 49.8165C87.0492 52.4672 89.3648 55.5141 94.3008 57.9821C99.2063 60.4501 106.366 62.1258 114.288 62.1258C117.731 62.1258 120.991 61.7907 124.008 61.2422V56.0626C128.243 55.4227 131.747 54.2649 134.002 52.7719V58.1344C137.81 57.0376 141.466 52.9852 141.558 49.8165C141.558 47.1962 139.242 44.1493 134.306 41.6813C129.37 39.2133 122.241 37.5376 114.288 37.5376ZM143.691 58.1649C142.685 59.2313 141.497 60.2368 140.156 61.1508L140.217 69.9868C144.056 67.7016 145.854 65.0508 145.854 62.7352C145.854 61.2727 145.153 59.6883 143.691 58.1649ZM91.3453 62.8571C91.4367 65.4774 93.7523 68.4329 98.5969 70.8704C103.533 73.3688 110.662 75.0141 118.615 75.0141C123.581 75.0141 128.243 74.3438 132.234 73.2469L132.448 64.9594C127.207 66.7876 120.991 67.793 114.288 67.793C105.605 67.793 97.7133 66.0563 91.7414 63.0704C91.5891 63.0094 91.4672 62.918 91.3453 62.8571ZM91.9547 73.4602C91.5281 74.2829 91.3453 75.1055 91.3453 75.8672C91.3453 78.518 93.6609 81.5649 98.5969 84.0329C103.533 86.5008 110.662 88.1461 118.615 88.1461C122.637 88.1461 126.445 87.75 129.888 86.9883V79.6758C126.354 80.3461 122.576 80.6813 118.615 80.6813C109.901 80.6813 102.009 78.9751 96.0375 75.9586C94.5445 75.2274 93.1734 74.3743 91.9547 73.4602ZM145.245 73.4602C143.386 74.7704 141.771 75.7454 139.882 76.568V83.3626C143.934 81.0165 145.854 78.2743 145.854 75.8672C145.854 75.1055 145.671 74.2829 145.245 73.4602ZM147.53 84.6727C146.92 85.2821 146.25 85.861 145.519 86.4399V96.3118C148.657 94.179 150.18 91.8329 150.18 89.7001C150.18 88.0852 149.297 86.3485 147.53 84.6727ZM95.7023 88.9383C95.6719 89.2125 95.6414 89.4563 95.6414 89.7001C95.6414 92.3508 97.957 95.3672 102.893 97.8352C107.829 100.334 114.989 101.979 122.911 101.979C127.451 101.979 131.777 101.431 135.525 100.516V91.4063C130.559 92.9907 124.8 93.8438 118.615 93.8438C109.901 93.8438 102.009 92.1071 96.0375 89.1211C95.9156 89.0602 95.8242 88.9993 95.7023 88.9383ZM91.5586 95.4586C88.9078 97.4391 87.6586 99.6024 87.6586 101.552C87.6586 104.203 89.9742 107.22 94.9102 109.718C99.8461 112.186 106.976 113.831 114.928 113.831C117.823 113.831 120.626 113.618 123.246 113.222V107.677H122.911C114.197 107.677 106.305 105.94 100.334 102.923C96.525 101.034 93.3562 98.5055 91.5586 95.4586ZM141.07 104.782C138.663 105.635 136.043 106.336 133.24 106.793V110.48C133.819 110.236 134.398 109.992 134.946 109.718C137.932 108.195 139.943 106.488 141.07 104.782ZM143.873 110.327C142.716 111.485 141.375 112.521 139.882 113.466V122.18C143.934 119.864 145.854 117.122 145.854 114.715C145.854 113.313 145.214 111.79 143.873 110.327ZM37.6289 111.181C34.5211 111.211 31.1695 111.607 27.6961 112.43C20.7462 114.045 14.7712 117 10.8712 120.26C6.97125 123.49 5.44781 126.781 5.90484 129.127C6.36187 131.473 8.76891 133.636 13.4611 134.885C18.138 136.104 24.6797 136.165 31.6266 134.55C34.4297 133.88 37.05 133.027 39.457 132.021V125.714C43.9055 123.734 47.2266 121.357 48.7195 119.041V126.476C52.4062 123.307 53.8383 120.138 53.4117 117.823C52.9852 115.477 50.5477 113.313 45.8555 112.095C43.5094 111.485 40.7062 111.15 37.6289 111.181ZM57.3117 112.765C58.1344 113.953 58.7133 115.294 59.018 116.787C59.3531 118.615 59.2008 120.382 58.6523 122.119C61.6688 122.911 64.4109 123.977 66.7875 125.318C68.1281 126.049 69.3773 126.933 70.4742 127.847C73.2164 127.207 75.532 126.293 77.1773 125.196V131.473C82.0828 129.157 84.3375 126.323 84.3375 124.069C84.3375 121.784 82.0828 118.95 77.1469 116.634C72.2414 114.349 65.1727 112.795 57.3117 112.765ZM91.3758 114.288C91.3453 114.41 91.3453 114.563 91.3453 114.715C91.3453 117.366 93.6609 120.382 98.5969 122.881C103.533 125.348 110.662 126.994 118.615 126.994C122.637 126.994 126.445 126.567 129.888 125.836V117.64C125.379 118.859 120.291 119.529 114.928 119.529C106.214 119.529 98.3227 117.792 92.3508 114.806C92.0156 114.623 91.6805 114.441 91.3758 114.288ZM92.2289 125.653C91.6195 126.659 91.3453 127.634 91.3453 128.578C91.3453 131.229 93.6609 134.245 98.5969 136.744C103.533 139.212 110.662 140.857 118.615 140.857C122.637 140.857 126.445 140.431 129.888 139.699V131.656C126.354 132.326 122.576 132.691 118.615 132.691C109.901 132.691 102.009 130.955 96.0375 127.938C94.6664 127.268 93.3867 126.506 92.2289 125.653ZM144.97 125.653C143.203 126.841 141.649 127.786 139.882 128.548V136.043C143.934 133.727 145.854 130.985 145.854 128.578C145.854 127.634 145.58 126.659 144.97 125.653ZM55.8187 127.298C54.7523 128.639 53.5031 129.919 52.1016 131.077C47.3484 135.068 40.6453 138.298 32.9062 140.095C30.1458 140.735 27.4036 141.131 24.7711 141.345C25.7461 142.959 27.4615 144.544 29.9721 145.945C34.125 148.291 40.2188 149.876 46.9828 149.876C50.0602 149.876 52.9852 149.541 55.6664 148.962V142.624C59.8711 141.984 63.4055 140.827 65.6602 139.334V144.94C68.707 142.807 70.1695 140.4 70.1695 138.115C70.1695 135.464 68.1891 132.631 64.0148 130.284C61.7602 129.035 58.957 127.999 55.8187 127.298Z" fill="#9D2E7F"/>
</svg>
