<svg width="142" height="142" viewBox="0 0 142 142" fill="none" xmlns="http://www.w3.org/2000/svg">
<path d="M137.655 2.87562C137.243 1.84976 136.451 1.02219 135.445 0.565083C134.438 0.107976 133.294 0.0565258 132.251 0.421434C131.207 0.786343 130.345 1.53951 129.842 2.52426C129.34 3.50901 129.237 4.64952 129.554 5.70852C136.15 24.6655 123.057 38.8229 113.075 46.4057L109.042 40.6263C107.686 38.688 104.654 37.0763 102.297 37.0479L79.662 37.1473C76.8969 37.2308 74.2058 38.06 71.8733 39.5471L5.17587 86.3148C3.62449 87.4065 2.56889 89.0685 2.2402 90.9368C1.91152 92.8051 2.33653 94.7276 3.42217 96.2832L33.7321 139.65C36.0041 142.881 39.6322 142.49 42.8698 140.232L109.567 93.4574C111.484 92.1013 113.699 89.1761 114.48 86.9396L121.566 64.6101C122.347 62.3807 121.871 58.9798 120.515 57.0415L118.059 53.5199C131.464 43.2462 145.38 25.0915 137.655 2.87562ZM106.621 69.3174C105.392 70.1775 104.006 70.7871 102.541 71.1113C101.077 71.4355 99.5631 71.4679 98.0861 71.2068C96.6092 70.9457 95.1982 70.3962 93.9337 69.5896C92.6692 68.7829 91.576 67.7351 90.7167 66.5058C88.9767 64.0184 88.2947 60.9422 88.8205 57.9524C89.3463 54.9627 91.0369 52.3037 93.5212 50.5592C95.4688 49.1947 97.794 48.4728 100.172 48.4945C102.55 48.5161 104.862 49.2802 106.784 50.6799C104.853 51.8443 103.525 52.5259 103.277 52.6324C102.396 53.0521 101.685 53.7582 101.259 54.6351C100.832 55.5121 100.717 56.5078 100.93 57.4591C101.144 58.4105 101.675 59.261 102.435 59.8714C103.195 60.4818 104.14 60.8158 105.115 60.8187C105.726 60.8187 106.351 60.6767 106.94 60.3998C108.318 59.7466 109.794 58.9727 111.335 58.0568C111.689 60.1873 111.435 62.3745 110.601 64.3666C109.767 66.3588 108.387 68.0749 106.621 69.3174Z" fill="#9D2E7F"/>
</svg>
