<svg width="130" height="130" viewBox="0 0 130 130" fill="none" xmlns="http://www.w3.org/2000/svg">
<path d="M65 8.125V36.5625C65 39.7948 66.284 42.8948 68.5696 45.1804C70.8552 47.466 73.9552 48.75 77.1875 48.75H105.625V109.687C105.625 112.92 104.341 116.02 102.055 118.305C99.7698 120.591 96.6698 121.875 93.4375 121.875H56.68C56.81 121.225 56.875 120.542 56.875 119.844V94.6156C61.4797 89.4001 64.2892 82.8446 64.8902 75.9132C65.4913 68.9819 63.8522 62.0406 60.214 56.1104C56.5758 50.1801 51.1305 45.5738 44.6791 42.9691C38.2277 40.3644 31.1108 39.8988 24.375 41.6406V20.3125C24.375 17.0802 25.659 13.9802 27.9446 11.6946C30.2302 9.40904 33.3302 8.125 36.5625 8.125H65ZM73.125 10.1562V36.5625C73.125 37.6399 73.553 38.6733 74.3149 39.4351C75.0767 40.197 76.1101 40.625 77.1875 40.625H103.594L73.125 10.1562ZM56.875 73.125C56.875 76.326 56.2445 79.4956 55.0196 82.4529C53.7946 85.4102 51.9992 88.0973 49.7357 90.3607C47.4723 92.6241 44.7852 94.4196 41.8279 95.6446C38.8706 96.8695 35.701 97.5 32.5 97.5C29.299 97.5 26.1294 96.8695 23.1721 95.6446C20.2148 94.4196 17.5277 92.6241 15.2643 90.3607C13.0008 88.0973 11.2054 85.4102 9.98044 82.4529C8.75548 79.4956 8.125 76.326 8.125 73.125C8.125 66.6603 10.6931 60.4605 15.2643 55.8893C19.8355 51.3181 26.0353 48.75 32.5 48.75C38.9647 48.75 45.1645 51.3181 49.7357 55.8893C54.3069 60.4605 56.875 66.6603 56.875 73.125ZM48.75 101.27C43.8121 104.129 38.2059 105.632 32.5 105.625C26.7948 105.634 21.1887 104.134 16.25 101.278V119.852C16.2511 120.21 16.347 120.562 16.528 120.871C16.709 121.181 16.9686 121.437 17.2805 121.613C17.5924 121.79 17.9455 121.881 18.304 121.877C18.6624 121.873 19.0134 121.774 19.3212 121.591L32.5 113.75L45.6788 121.591C45.9872 121.774 46.339 121.873 46.6981 121.877C47.0572 121.881 47.4108 121.789 47.723 121.611C48.0352 121.434 48.2947 121.177 48.4751 120.866C48.6555 120.556 48.7504 120.203 48.75 119.844V101.27Z" fill="#9D2E7F"/>
</svg>
