<svg width="31" height="44" viewBox="0 0 31 44" fill="none" xmlns="http://www.w3.org/2000/svg">
<path fill-rule="evenodd" clip-rule="evenodd" d="M15.4665 36.7744L4.89565 26.0031C-0.940965 20.0558 -0.940965 10.4078 4.89565 4.46047C10.7323 -1.48682 20.2008 -1.48682 26.0374 4.46047C31.874 10.4078 31.874 20.0558 26.0374 26.0031L15.4665 36.7744Z" fill="url(#paint0_linear_554_580)"/>
<path style="mix-blend-mode:multiply" opacity="0.7" fill-rule="evenodd" clip-rule="evenodd" d="M27.8484 40.6657C27.8484 41.9996 22.5433 43.0827 15.9882 43.0827C9.43305 43.0827 4.12793 41.9996 4.12793 40.6657C4.12793 39.3318 9.43305 38.2487 15.9882 38.2487C22.5433 38.2487 27.8484 39.3318 27.8484 40.6657Z" fill="url(#paint1_radial_554_580)"/>
<g filter="url(#filter0_d_554_580)">
<path d="M15.3878 23.5861C20.1822 23.5861 24.0689 19.6257 24.0689 14.7404C24.0689 9.85501 20.1822 5.89465 15.3878 5.89465C10.5933 5.89465 6.70667 9.85501 6.70667 14.7404C6.70667 19.6257 10.5933 23.5861 15.3878 23.5861Z" fill="url(#paint2_linear_554_580)"/>
</g>
<defs>
<filter id="filter0_d_554_580" x="4.74667" y="2.95465" width="25.2022" height="25.5314" filterUnits="userSpaceOnUse" color-interpolation-filters="sRGB">
<feFlood flood-opacity="0" result="BackgroundImageFix"/>
<feColorMatrix in="SourceAlpha" type="matrix" values="0 0 0 0 0 0 0 0 0 0 0 0 0 0 0 0 0 0 127 0" result="hardAlpha"/>
<feOffset dx="1.96" dy="0.98"/>
<feGaussianBlur stdDeviation="1.96"/>
<feColorMatrix type="matrix" values="0 0 0 0 0.729412 0 0 0 0 0.709804 0 0 0 0 0.713726 0 0 0 0.7 0"/>
<feBlend mode="normal" in2="BackgroundImageFix" result="effect1_dropShadow_554_580"/>
<feBlend mode="normal" in="SourceGraphic" in2="effect1_dropShadow_554_580" result="shape"/>
</filter>
<linearGradient id="paint0_linear_554_580" x1="15.4665" y1="1.47178" x2="15.4665" y2="32.2713" gradientUnits="userSpaceOnUse">
<stop stop-color="#9D2E7F"/>
<stop offset="1" stop-color="#A43C8B"/>
</linearGradient>
<radialGradient id="paint1_radial_554_580" cx="0" cy="0" r="1" gradientUnits="userSpaceOnUse" gradientTransform="translate(15.9882 40.8562) scale(11.378 2.31874)">
<stop stop-color="#BABABA"/>
<stop offset="0.11" stop-color="#BDBDBD" stop-opacity="0.94"/>
<stop offset="0.3" stop-color="#C8C8C8" stop-opacity="0.79"/>
<stop offset="0.54" stop-color="#D8D8D8" stop-opacity="0.55"/>
<stop offset="0.83" stop-color="#EFEFEF" stop-opacity="0.22"/>
<stop offset="1" stop-color="white" stop-opacity="0"/>
</radialGradient>
<linearGradient id="paint2_linear_554_580" x1="15.3878" y1="5.89465" x2="15.3878" y2="23.5861" gradientUnits="userSpaceOnUse">
<stop stop-color="white"/>
<stop offset="1" stop-color="#F5F5F5"/>
</linearGradient>
</defs>
</svg>
