<svg width="31" height="44" viewBox="0 0 31 44" fill="none" xmlns="http://www.w3.org/2000/svg">
<path fill-rule="evenodd" clip-rule="evenodd" d="M15.1875 37.5399L4.4475 26.7999C-1.4825 20.8699 -1.4825 11.2499 4.4475 5.31994C10.3775 -0.610064 19.9975 -0.610064 25.9275 5.31994C31.8575 11.2499 31.8575 20.8699 25.9275 26.7999L15.1875 37.5399Z" fill="url(#paint0_linear_557_53)"/>
<path style="mix-blend-mode:multiply" opacity="0.7" fill-rule="evenodd" clip-rule="evenodd" d="M27.7675 41.4199C27.7675 42.7499 22.3775 43.8299 15.7175 43.8299C9.05748 43.8299 3.66748 42.7499 3.66748 41.4199C3.66748 40.0899 9.05748 39.0099 15.7175 39.0099C22.3775 39.0099 27.7675 40.0899 27.7675 41.4199Z" fill="url(#paint1_radial_557_53)"/>
<g filter="url(#filter0_d_557_53)">
<path d="M15.1075 24.3899C19.9786 24.3899 23.9275 20.4411 23.9275 15.5699C23.9275 10.6988 19.9786 6.74994 15.1075 6.74994C10.2363 6.74994 6.28748 10.6988 6.28748 15.5699C6.28748 20.4411 10.2363 24.3899 15.1075 24.3899Z" fill="url(#paint2_linear_557_53)"/>
</g>
<defs>
<filter id="filter0_d_557_53" x="4.32748" y="3.80994" width="25.48" height="25.48" filterUnits="userSpaceOnUse" color-interpolation-filters="sRGB">
<feFlood flood-opacity="0" result="BackgroundImageFix"/>
<feColorMatrix in="SourceAlpha" type="matrix" values="0 0 0 0 0 0 0 0 0 0 0 0 0 0 0 0 0 0 127 0" result="hardAlpha"/>
<feOffset dx="1.96" dy="0.98"/>
<feGaussianBlur stdDeviation="1.96"/>
<feColorMatrix type="matrix" values="0 0 0 0 0.729412 0 0 0 0 0.709804 0 0 0 0 0.713726 0 0 0 0.7 0"/>
<feBlend mode="normal" in2="BackgroundImageFix" result="effect1_dropShadow_557_53"/>
<feBlend mode="normal" in="SourceGraphic" in2="effect1_dropShadow_557_53" result="shape"/>
</filter>
<linearGradient id="paint0_linear_557_53" x1="15.1875" y1="-1.42006" x2="15.1875" y2="38.7699" gradientUnits="userSpaceOnUse">
<stop stop-color="#F5B122"/>
<stop offset="1" stop-color="#F59822"/>
</linearGradient>
<radialGradient id="paint1_radial_557_53" cx="0" cy="0" r="1" gradientUnits="userSpaceOnUse" gradientTransform="translate(15.7175 41.9539) scale(11.56 2.312)">
<stop stop-color="#BABABA"/>
<stop offset="0.11" stop-color="#BDBDBD" stop-opacity="0.94"/>
<stop offset="0.3" stop-color="#C8C8C8" stop-opacity="0.79"/>
<stop offset="0.54" stop-color="#D8D8D8" stop-opacity="0.55"/>
<stop offset="0.83" stop-color="#EFEFEF" stop-opacity="0.22"/>
<stop offset="1" stop-color="white" stop-opacity="0"/>
</radialGradient>
<linearGradient id="paint2_linear_557_53" x1="15.1075" y1="6.74994" x2="15.1075" y2="24.3899" gradientUnits="userSpaceOnUse">
<stop stop-color="white"/>
<stop offset="1" stop-color="#F5F5F5"/>
</linearGradient>
</defs>
</svg>
